<svg width="71" height="13" viewBox="0 0 71 13" fill="none" xmlns="http://www.w3.org/2000/svg">
<path d="M14.312 9.048C15.98 9.048 17.324 7.704 17.324 6.036C17.324 4.38 15.98 3.024 14.312 3.024C12.656 3.024 11.3 4.38 11.3 6.036V6.048V11.424C11.3 11.748 11.564 12.012 11.9 12.012C12.224 12.012 12.488 11.748 12.488 11.424V8.436C12.992 8.82 13.628 9.048 14.312 9.048ZM14.312 4.212C15.32 4.212 16.136 5.04 16.136 6.036C16.136 7.044 15.32 7.86 14.312 7.86C13.304 7.86 12.488 7.044 12.488 6.048V6.036C12.488 5.028 13.304 4.212 14.312 4.212ZM21.0626 3C19.3706 3 18.0266 4.344 18.0266 6.036C18.0266 7.728 19.3706 8.988 21.0626 8.988C21.7466 8.988 22.3226 8.82 22.8386 8.388C22.8386 8.736 23.1746 8.988 23.4146 8.988C23.7626 8.988 24.0146 8.736 24.0146 8.388V6.036C24.0146 4.344 22.7546 3 21.0626 3ZM21.0626 7.812C20.0546 7.812 19.2026 7.044 19.2026 6.036C19.2026 5.028 20.0546 4.176 21.0626 4.176C22.0706 4.176 22.8386 5.028 22.8386 6.036C22.8386 7.044 22.0706 7.812 21.0626 7.812ZM27.7534 9.048C29.4214 9.048 30.7654 7.704 30.7654 6.036C30.7654 4.38 29.4214 3.024 27.7534 3.024C26.0974 3.024 24.7414 4.38 24.7414 6.036V6.048V11.424C24.7414 11.748 25.0054 12.012 25.3414 12.012C25.6654 12.012 25.9294 11.748 25.9294 11.424V8.436C26.4334 8.82 27.0694 9.048 27.7534 9.048ZM27.7534 4.212C28.7614 4.212 29.5774 5.04 29.5774 6.036C29.5774 7.044 28.7614 7.86 27.7534 7.86C26.7454 7.86 25.9294 7.044 25.9294 6.048V6.036C25.9294 5.028 26.7454 4.212 27.7534 4.212ZM34.4746 2.976C32.8066 2.976 31.4626 4.32 31.4626 5.988C31.4626 7.644 32.8066 9 34.4746 9C34.9186 9 35.5306 9.012 36.3226 8.484C36.5986 8.304 36.7546 7.992 36.6106 7.692C36.4666 7.404 36.0946 7.236 35.8186 7.416C35.2426 7.788 34.7506 7.812 34.4746 7.812C33.6706 7.812 32.9986 7.296 32.7466 6.576H36.8866C37.2226 6.576 37.4866 6.312 37.4866 5.988C37.4866 4.032 35.9266 2.976 34.4746 2.976ZM34.4746 4.164C35.1946 4.164 35.9626 4.548 36.2146 5.388H32.7466C32.9986 4.68 33.6706 4.164 34.4746 4.164ZM41.2185 2.988C39.5625 2.988 38.2065 4.332 38.2065 6V8.412C38.2065 8.736 38.4705 9.012 38.8065 9.012C39.1305 9.012 39.3945 8.736 39.3945 8.412V6C39.3945 4.992 40.2105 4.176 41.2185 4.176C41.5545 4.176 41.8185 3.9 41.8185 3.576C41.8185 3.252 41.5545 2.988 41.2185 2.988ZM45.3441 5.928C45.0081 5.592 44.5521 5.4 44.0721 5.4C43.7361 5.4 43.4601 5.124 43.4601 4.788C43.4601 4.452 43.7361 4.176 44.0721 4.176C44.3601 4.176 44.5641 4.308 44.6361 4.5C44.7441 4.8 45.0201 5.016 45.3441 4.944C45.6681 4.884 45.8601 4.56 45.8001 4.236C45.6801 3.564 44.9121 2.988 44.0721 2.988C43.0761 2.988 42.2721 3.792 42.2721 4.788C42.2721 5.268 42.4521 5.724 42.8001 6.06C43.1361 6.396 43.5921 6.588 44.0721 6.588C44.4081 6.588 44.6841 6.864 44.6841 7.2C44.6841 7.548 44.4081 7.824 44.0721 7.824C43.7841 7.824 43.6401 7.776 43.4721 7.464C43.3161 7.164 43.0881 6.936 42.7641 6.996C42.4521 7.068 42.2001 7.392 42.3081 7.704C42.5361 8.4 43.2201 9.012 44.0721 9.012C45.0681 9.012 45.8721 8.196 45.8721 7.2C45.8721 6.72 45.6921 6.276 45.3441 5.928ZM55.0231 5.4C55.0231 4.08 53.9431 3 52.6111 3C51.8911 3 51.2431 3.312 50.7991 3.828C50.3551 3.312 49.7071 3 48.9871 3C47.6551 3 46.5751 4.08 46.5751 5.4V8.424C46.5751 8.76 46.8391 9.024 47.1751 9.024C47.4991 9.024 47.7631 8.76 47.7631 8.424V5.4C47.7631 4.728 48.3151 4.188 48.9871 4.188C49.6591 4.188 50.1991 4.728 50.1991 5.4V8.424C50.1991 8.76 50.4751 9.024 50.7991 9.024C51.1231 9.024 51.3871 8.76 51.3871 8.424V5.4C51.3871 4.728 51.9391 4.188 52.6111 4.188C53.2831 4.188 53.8351 4.728 53.8351 5.4C53.8351 5.424 53.8351 5.436 53.8351 5.448C53.8351 5.472 53.8351 5.484 53.8351 5.508V8.424C53.8351 8.76 54.0991 9.024 54.4231 9.024C54.7471 9.024 55.0231 8.76 55.0231 8.424V5.508C55.0231 5.484 55.0231 5.472 55.0111 5.448C55.0231 5.436 55.0231 5.424 55.0231 5.4ZM58.7735 3C57.0815 3 55.7375 4.344 55.7375 6.036C55.7375 7.728 57.0815 8.988 58.7735 8.988C59.4575 8.988 60.0335 8.82 60.5495 8.388C60.5495 8.736 60.8855 8.988 61.1255 8.988C61.4735 8.988 61.7255 8.736 61.7255 8.388V6.036C61.7255 4.344 60.4655 3 58.7735 3ZM58.7735 7.812C57.7655 7.812 56.9135 7.044 56.9135 6.036C56.9135 5.028 57.7655 4.176 58.7735 4.176C59.7815 4.176 60.5495 5.028 60.5495 6.036C60.5495 7.044 59.7815 7.812 58.7735 7.812ZM65.4529 2.988C63.7969 2.988 62.4409 4.332 62.4409 6V8.412C62.4409 8.736 62.7049 9.012 63.0409 9.012C63.3649 9.012 63.6289 8.736 63.6289 8.412V6C63.6289 4.992 64.4449 4.176 65.4529 4.176C65.7889 4.176 66.0529 3.9 66.0529 3.576C66.0529 3.252 65.7889 2.988 65.4529 2.988ZM70.2607 2.988H69.4087V0.588C69.4087 0.263999 69.1447 -7.15256e-07 68.8087 -7.15256e-07C68.4847 -7.15256e-07 68.2207 0.263999 68.2207 0.588V2.988H67.3567C67.0327 2.988 66.7687 3.252 66.7687 3.576C66.7687 3.9 67.0327 4.176 67.3567 4.176H68.2207V8.412C68.2207 8.736 68.4847 9.012 68.8087 9.012C69.1447 9.012 69.4087 8.736 69.4087 8.412V4.176H70.2607C70.5967 4.176 70.8607 3.9 70.8607 3.576C70.8607 3.252 70.5967 2.988 70.2607 2.988Z" fill="white"/>
<rect x="4" y="7" width="3" height="3" rx="1" fill="#F6597C"/>
<rect y="7" width="3" height="3" rx="1" fill="#F6597C"/>
<rect x="4" y="3" width="3" height="3" rx="1" fill="#F6597C"/>
</svg>
